inDegrees=yes
name=ik_S49_A11_T02
DataType=double
version=3
OpenSimVersion=4.3-2021-08-27-4bc7ad9
endheader
time	pelvis_tilt	pelvis_list	pelvis_rotation	pelvis_tx	pelvis_ty	pelvis_tz	hip_flexion_r	hip_adduction_r	hip_rotation_r	knee_angle_r	knee_angle_r_beta	ankle_angle_r	subtalar_angle_r	mtp_angle_r	hip_flexion_l	hip_adduction_l	hip_rotation_l	knee_angle_l	knee_angle_l_beta	ankle_angle_l	subtalar_angle_l	mtp_angle_l	lumbar_extension	lumbar_bending	lumbar_rotation	arm_flex_r	arm_add_r	arm_rot_r	elbow_flex_r	pro_sup_r	wrist_flex_r	wrist_dev_r	arm_flex_l	arm_add_l	arm_rot_l	elbow_flex_l	pro_sup_l	wrist_flex_l	wrist_dev_l
8.219999999999914	2.878353450445017	0.8510889306042171	48.36816115025445	0	0.9399999999999999	0	30.9753197369752	-9.345562728284392	-8.687773761046618	34.5309622204967	0.6026789846294397	0	0	0	30.9753197369752	-9.345562728284392	-8.687773761046618	34.5309622204967	0.6026789846294397	0	0	0	2.376572137031998	-0.7102431295389001	14.00351605441683	95.46119809586668	9.254040262176964	-11.46653376810074	25.98567396003227	118.2835112298966	0	0	-2.991064754033876	-4.943445608779882	0.4364444668536359	2.364654836206011	99.44109162808776	0	0
8.239999999999913	2.869855707090706	0.8527365829714191	48.41692098634287	0	0.9399999999999999	0	30.97899163819638	-9.346131552925986	-8.688509881745603	34.53485635717589	0.6027469501360141	0	0	0	30.97899163819638	-9.346131552925986	-8.688509881745603	34.53485635717589	0.6027469501360141	0	0	0	2.372463790889301	-0.7039763699636412	13.97997776184222	95.54122630595498	9.336099108236732	-11.39148463543978	25.74557386563997	118.9153644615346	0	0	-2.993830696134038	-4.897960435611274	0.4131081651457248	2.376967101197312	99.47274085511889	0	0
8.259999999999913	2.891870701777557	0.8258393090393005	48.46317872874437	0	0.9399999999999999	0	30.98249905558115	-9.346681429783372	-8.689218465609525	34.53853677042688	0.6028111854650779	0	0	0	30.98249905558115	-9.346681429783372	-8.689218465609525	34.53853677042688	0.6028111854650779	0	0	0	2.366889364785105	-0.7379377189666435	13.98778412956684	95.65334818989218	9.360950164165725	-11.33647268870466	25.63869699175903	118.8680281374131	0	0	-2.96242071483308	-4.974663675320755	0.4636201233828646	2.378016168733085	99.47900346216296	0	0
8.279999999999912	2.898860772115726	0.8174181874167367	48.51334260771943	0	0.9399999999999999	0	30.98538502632898	-9.347133630762336	-8.68980134075653	34.54156544664392	0.602864045837042	0	0	0	30.98538502632898	-9.347133630762336	-8.68980134075653	34.54156544664392	0.602864045837042	0	0	0	2.365200832198584	-0.7485209757595712	13.99267356995628	95.64886423490293	9.428774367349172	-11.15872713382149	25.57953661692642	118.9008893563389	0	0	-2.952296239715311	-4.977128729551779	0.4745133440914281	2.375669545491327	99.51057514941685	0	0
8.299999999999912	2.897410335724607	0.8050065579295064	48.55001244015919	0	0.9399999999999999	0	31.00386375103347	-9.349136589404431	-8.692898231466524	34.56161470327935	0.6032139713779078	0	0	0	31.00386375103347	-9.349136589404431	-8.692898231466524	34.56161470327935	0.6032139713779078	0	0	0	2.354977742982365	-0.7556903376773099	13.99468339551958	95.6613910732605	9.392428653591356	-11.13902466405206	25.54876120744182	119.0337389702858	0	0	-2.916391024611549	-4.981751534749216	0.5115730455740232	2.352539289057356	99.53068966954467	0	0
8.319999999999911	2.896102745980567	0.7936989430244297	48.57957873087212	0	0.9399999999999999	0	31.00803045822561	-9.349790243818713	-8.693740602994785	34.56597516811759	0.6032900758462524	0	0	0	31.00803045822561	-9.349790243818713	-8.693740602994785	34.56597516811759	0.6032900758462524	0	0	0	2.345806450224055	-0.7630694464509602	13.97810541471728	95.65025827458749	9.510524071134467	-11.09742761688801	25.49858452091577	119.3145004968156	0	0	-2.928639666127947	-4.973999306277057	0.4143946098335195	2.410787973420434	99.62510596674501	0	0
8.339999999999911	2.894831057977676	0.7733658763372799	48.62155330685859	0	0.9399999999999999	0	31.01366063878876	-9.350674099680266	-8.694879504273981	34.57185977968116	0.6033927816932376	0	0	0	31.01366063878876	-9.350674099680266	-8.694879504273981	34.57185977968116	0.6033927816932376	0	0	0	2.329816411765353	-0.7760909598251519	13.96795716820331	95.56529127872385	9.643176356492411	-11.21900004247699	25.54243495202818	119.5516468132823	0	0	-2.893384223705124	-4.982947219693109	0.4054567413178319	2.397661168762068	99.66053184795111	0	0
8.359999999999911	2.890489623594614	0.772443478236758	48.65414202654035	0	0.9399999999999999	0	31.0326173317508	-9.352785145098695	-8.698094300905106	34.59234655240997	0.6037503433304632	0	0	0	31.0326173317508	-9.352785145098695	-8.698094300905106	34.59234655240997	0.6037503433304632	0	0	0	2.326332215166785	-0.7739546947731525	13.96080468484702	95.56073263679676	9.645778982338294	-11.21434709781376	25.51386616822939	119.4172095215012	0	0	-2.900968854507637	-4.98154170175062	0.4157954786050355	2.367741330165534	99.69285467251086	0	0
8.37999999999991	2.887422337674993	0.7642823359961604	48.68906491782199	0	0.9399999999999999	0	31.03745957980809	-9.353541122366108	-8.699070628990398	34.59742189465512	0.6038389247633066	0	0	0	31.03745957980809	-9.353541122366108	-8.699070628990398	34.59742189465512	0.6038389247633066	0	0	0	2.31831895709284	-0.7778061032683529	13.94644156988118	95.42515736318047	9.731670899212247	-11.1892090427509	25.57126633877361	119.239356625218	0	0	-2.877707003814825	-4.984393787061157	0.4079314001569922	2.411519560080516	99.82143151574083	0	0
8.39999999999991	2.886117278038169	0.7598644756166262	48.72266216044433	0	0.9399999999999999	0	31.04123527426483	-9.354128688082527	-8.699830427358258	34.60138827277601	0.6039081511208952	0	0	0	31.04123527426483	-9.354128688082527	-8.699830427358258	34.60138827277601	0.6039081511208952	0	0	0	2.31421915108481	-0.7802632100316547	13.93580042418852	95.37027401731443	9.792757297955959	-11.24832866446824	25.51389360447117	118.9664907954354	0	0	-2.87917618587941	-5.003488508297374	0.4341230368684383	2.403293776835023	99.84753793320239	0	0
8.419999999999909	2.866096932280568	0.7549110277855617	48.74821221464386	0	0.9399999999999999	0	31.04212260603987	-9.35426351927531	-8.700006295704462	34.60233947847525	0.6039247527922107	0	0	0	31.04212260603987	-9.35426351927531	-8.700006295704462	34.60233947847525	0.6039247527922107	0	0	0	2.297259917815641	-0.768324398573496	13.93853640780498	95.33792342498879	9.829733837360095	-11.2858246499777	25.51264233113562	118.9450896809437	0	0	-2.854575589128131	-4.979855453250869	0.4814492158976591	2.407561094047644	99.8542315227071	0	0
8.439999999999909	2.851142399032935	0.7564499671416157	48.7735905309469	0	0.9399999999999999	0	31.05945564720035	-9.356082494165694	-8.702865226141913	34.62115491683647	0.6042531441418201	0	0	0	31.05945564720035	-9.356082494165694	-8.702865226141913	34.62115491683647	0.6042531441418201	0	0	0	2.288676836225669	-0.7566253399770886	13.93048917062512	95.29298027704208	9.84981362393982	-11.3043402556996	25.49349112464574	118.8753976087327	0	0	-2.862795258353497	-4.958650072985266	0.5148446499608462	2.336177716803181	99.84624523402583	0	0
8.459999999999908	2.834095220372853	0.7479077798377834	48.80307975860728	0	0.9399999999999999	0	31.08035689833027	-9.358651527670235	-8.706581935497024	34.643558033065	0.6046441522827147	0	0	0	31.08035689833027	-9.358651527670235	-8.706581935497024	34.643558033065	0.6046441522827147	0	0	0	2.271096328080307	-0.7496573639546609	13.92988581333841	95.26392136652636	9.825490846644939	-11.2788099953654	25.50530847793472	118.8300390390562	0	0	-2.843966291610462	-4.938661080844818	0.5464472412754665	2.371026259288278	99.8537846340614	0	0
8.479999999999908	2.819437469009928	0.745030428623464	48.82488288963776	0	0.9399999999999999	0	31.10760112100057	-9.361705557905493	-8.711226631250215	34.67297463317948	0.605157568809455	0	0	0	31.10760112100057	-9.361705557905493	-8.711226631250215	34.67297463317948	0.605157568809455	0	0	0	2.259410694568752	-0.7410479621466806	13.92461063337168	95.23114715513428	9.814058236223927	-11.2368995887838	25.53753641868814	118.7845359891747	0	0	-2.823915486203838	-4.922432534077236	0.5875967748089288	2.370081771003212	99.86590830795345	0	0
